<?xml version="1.0" encoding="utf-8"?>
<!-- Generator: Adobe Illustrator 16.0.0, SVG Export Plug-In . SVG Version: 6.00 Build 0)  -->
<!DOCTYPE svg PUBLIC "-//W3C//DTD SVG 1.1//EN" "http://www.w3.org/Graphics/SVG/1.1/DTD/svg11.dtd">
<svg version="1.1" id="Layer_1" xmlns="http://www.w3.org/2000/svg" xmlns:xlink="http://www.w3.org/1999/xlink" x="0px" y="0px"
	 width="50px" height="65px" viewBox="0 0 50 65">
<g>
	<path opacity="0.6" fill="#FFFFFF" d="M5.027,24.325c-0.852,0.909-1.448,2.053-1.896,3.297c0.48,4.198,2.145,8.029,4.656,11.16
		c-1.156-1.691-3.235-5.328-3.011-8.291C4.892,28.933,5.677,25.946,5.027,24.325z"/>
	<path opacity="0.6" fill="#FFFFFF" d="M35.963,39.315c-0.069,0.009-0.136,0.019-0.207,0.026c0.639,0.997,1.021,2.855,0.511,4.433
		c0.854-0.524,1.671-1.105,2.443-1.736C38.084,40.85,37.114,39.903,35.963,39.315z"/>
	<path opacity="0.6" fill="#FFFFFF" d="M31.668,38.821c0.946,1.149,2.735,3.436,2.94,5.871c0.561-0.281,1.108-0.581,1.641-0.906
		C35.872,38.936,31.66,38.752,31.668,38.821z"/>
	<path opacity="0.6" fill="#FFFFFF" d="M26.161,38.62c1.841,1.876,3.629,4.562,4.46,7.591c1.229-0.334,2.415-0.771,3.55-1.306
		c-0.852-2.021-2.01-2.929-3.002-4.121C30.022,39.414,28.4,38.571,26.161,38.62z"/>
	<path opacity="0.6" fill="#FFFFFF" d="M29.99,46.374c-0.825-1.403-1.88-2.598-2.848-3.759c-2.948-3.532-9.043-4.218-14.401-6.185
		c-0.236,2.637,5.005,6.32,7.022,8.389c-3.306-0.596-6.439-3.221-8.559-5.725c-1.418-2.211-2.69-4.791-4.107-7.002
		c-0.07,0.009-0.138,0.019-0.207,0.028c0.018,0.139,0.037,0.276,0.056,0.417c-0.635,2.222,0.805,5.333,1.509,7.04
		c0.302,0.343,0.611,0.68,0.934,1.003c3.963,3.962,9.422,6.404,15.467,6.406C26.626,46.985,28.345,46.769,29.99,46.374z"/>
	<path opacity="0.6" fill="#FFFFFF" d="M7.202,18.33c-0.072-0.554-0.145-1.108-0.218-1.662c-0.137,0.017-0.276,0.036-0.414,0.054
		c-0.988-0.103-1.767,0.632-2.548,1.725c-0.55,1.725-0.895,3.542-1,5.426C4.188,21.361,5.834,19.413,7.202,18.33z"/>
	<path opacity="0.6" fill="#FFFFFF" d="M10.979,14.875c1.68-0.64,3.36-1.285,5.038-1.928c-1.659-0.277-3.314-0.552-4.973-0.83
		c4.121-0.635,6.777-0.133,9.787,0.413c-1.715-1.512-4.452-1.436-6.289-2.773c5.031-0.167,9.357,2.401,13.033,4.218
		c-1.895-3.723-5.485-6.282-7.688-10.159c-1.179,0.274-2.323,0.639-3.418,1.095c2.462,0.943,4.553,2.469,5.879,4.669
		c-0.068,0.011-0.139,0.02-0.209,0.028c-2.408-0.992-5.474-1.87-7.857-1.335c-2.03,0.451-3.516,1.999-4.194,4.603
		c0.227,0.677,0.458,1.351,0.686,2.025C10.841,14.894,10.913,14.884,10.979,14.875z"/>
	<path opacity="0.6" fill="#FFFFFF" d="M11.553,24.106c0.041,0.841,0.08,1.681,0.118,2.525c-0.467,0.201-0.933,0.401-1.4,0.604
		c0.008,0.072,0.019,0.141,0.027,0.209c1.8-0.243,2.019,0.217,2.53,1.572c5.067-1.401,7.361,0.417,11.405,1.47
		c0,0-2.185-0.938-3.835-2.153c-1.366-1.011-2.251-2.339-2.251-2.339c-1.477-0.483-2.625,0.625-3.645-0.37
		c-0.666-0.702-0.707-1.135-0.716-2.233c0.141-0.018,0.279-0.036,0.416-0.054c0.329,1.247,0.558,1.312,1.491,1.708
		c0.4-0.193,0.799-0.386,1.196-0.581c-0.499-1.11-0.313-1.901,0.062-2.756c1.69-0.946,3.186-1.885,5.02-0.446
		c-1.51,0.105-2.131,0.178-3.301,0.643c-0.103,0.294-0.207,0.593-0.31,0.887c0.116,0.338,0.23,0.674,0.347,1.012
		c0.276-0.037,0.555-0.072,0.832-0.109c0.788-0.635,1.126-0.949,2.594-1.184c1.33,0.422,2.299,0.951,3.213,1.906
		c-1.56-0.424-3.767-1.756-4.606,0.39c1.719,0.78,2.89,0.108,4.277,1.979c-1.589-0.528-1.906-0.956-3.641-0.367
		c0.008,0.069,0.018,0.136,0.025,0.205c0.323,0.311,0.646,0.622,0.968,0.933c1.887,0.392,3.927,0.698,5.453,1.435
		c1.534,0.742,2.553,1.917,4.14,2.386c0.01,0.069,0.018,0.14,0.027,0.208c-3.021,0.08-6.142,0.8-8.677,1.559
		c0.008,0.068,0.018,0.136,0.027,0.206c8.886-0.511,14.857,0.084,19.356,4.404c0.615-0.863,1.169-1.775,1.654-2.728
		c-0.983-1.447-1.185-2.858-2.024-4.548c-1.725-3.459-4.322-6.982-9.025-6.678c0.114,0.335,0.23,0.674,0.345,1.014
		c0.391,0.698,0.485,0.825,1.201,1.11c0.922,0.611,2.393,0.685,3.638,0.299c-0.295,0.462-0.863,0.958-1.156,1.421
		c-0.106,0.789,0.569,0.561,0.652,0.689c0.723,0.119,1.496,0.087,2.217,0.206c-2.237,1.961-4.354,2.634-6.804,2.439
		c0.14-0.018,0.36-0.079,0.485-0.333c0.465-0.623,1.204-1.092,1.561-1.837c-0.38-0.727-0.648-1.507-1.496-1.71
		c-0.846-0.201-2.332-0.857-3.821-1.059c-1.591-0.219-3.188-0.041-3.714-0.492c0.814-0.249,1.949-0.75,2.762-0.996
		c-0.01-0.068-0.02-0.139-0.029-0.208c-2.08-0.39-5.537-2.067-6.627-3.787c1.591,0.709,3.046,1.536,5.083,1.662
		c-0.169-0.19-0.333-0.378-0.5-0.568c-1.043-0.43-2.086-0.857-3.127-1.284c1.482,0.017,2.965,0.036,4.448,0.054
		c-2.278-1.598-4.264-0.573-5.561-3.716c-0.13,0.087-0.26,0.174-0.389,0.262c0.213,0.537,0.424,1.073,0.633,1.609
		c-0.277,0.037-0.556,0.073-0.833,0.109c-0.573-0.066-1.146-0.131-1.717-0.196c-0.519-0.71-1.03-1.419-1.544-2.126
		c-0.074,0.01-0.141,0.019-0.213,0.028c0.24,0.743,0.48,1.488,0.716,2.234c-2.371-0.28-3.027-0.562-4.638-1.511
		c0.296,0.667,0.6,1.333,0.896,2c-0.321,0.25-0.641,0.504-0.96,0.756c-1.721,0.063-2.046-0.623-3.31-1.047
		c0.009,0.07,0.019,0.14,0.027,0.208c0.645,0.623,1.291,1.241,1.936,1.864c-0.05,0.146-0.101,0.294-0.151,0.444
		c-0.441,0.409-0.883,0.818-1.322,1.229c-0.778-0.04-1.561-0.077-2.341-0.118c0.028,0.21,0.055,0.417,0.081,0.624
		C10.336,23.421,10.946,23.764,11.553,24.106z"/>
	<path opacity="0.6" fill="#FFFFFF" d="M42.686,27.65c0.94-0.562,1.603-1.4,2.019-2.38c-0.952,0.267-1.906,0.533-2.861,0.798
		c-0.015-0.138,1.783-1.886,1.704-1.946c-1.247,0.164-2.751,0.391-3.999,0.554c2.141,2.33,2.933,3.736,5.4,5.711
		c0.3,0.239,0.625,0.445,0.968,0.629c0.524-1.878,0.812-3.855,0.812-5.903c0-0.029-0.004-0.056-0.004-0.085
		C45.467,26.175,44.373,27.762,42.686,27.65z"/>
	<path opacity="0.6" fill="#FFFFFF" d="M30.874,13.332c-1.475-2.172-5.427-6.373-4.868-9.729c0.068-0.009,0.137-0.017,0.208-0.027
		c1.583,4.552,5.655,9.145,9.118,11.5c1.593,0.85,3.184,1.699,4.775,2.548c0.249,0.813,0.495,1.627,0.741,2.442
		c0.942,1.409,3.453,2.39,5.764,2.792c-0.526-5.141-2.83-9.746-6.29-13.209c-3.963-3.96-9.423-6.405-15.466-6.406
		c-1.542,0-3.046,0.162-4.499,0.465C22.224,6.627,28.515,12.546,30.874,13.332z"/>
	<path opacity="0.6" fill="#FFFFFF" d="M40.427,23.292c0.215-0.367-0.116-0.681-0.5-0.97c-0.381-0.289-2.218-0.792-4.556-0.484
		c1.021,0.894,2.795,2.392,4.275,2.583C39.887,24.106,40.208,23.66,40.427,23.292z"/>
	<path opacity="0.6" fill="#FFFFFF" d="M37.825,19.049c-0.619-1.153-2.718-2.438-4.021-2.715c0.404,1.081,0.707,2.812,1.622,3.242
		c0.583,0.135,1.847,0.11,2.431,0.246C37.622,19.64,38.062,19.232,37.825,19.049z"/>
	<path fill="#3858B5" d="M49.853,25.114C49.851,14.727,43.516,5.826,34.496,2.054c-0.217-0.09-0.438-0.176-0.658-0.26
		c-0.106-0.041-0.213-0.084-0.319-0.124c-2.667-0.972-5.546-1.502-8.548-1.502C11.18,0.168,0,11.348,0,25.139
		c0,12.217,8.776,22.376,20.366,24.539L24.816,65l4.872-15.364C41.18,47.385,49.851,37.266,49.853,25.114z M46.729,25.114
		c0,2.047-0.288,4.025-0.812,5.903c-0.343-0.184-0.668-0.39-0.968-0.629c-2.468-1.976-3.26-3.382-5.4-5.711
		c1.248-0.163,2.752-0.39,3.999-0.554c0.079,0.06-1.719,1.808-1.704,1.946c0.955-0.265,1.909-0.532,2.861-0.798
		c-0.416,0.979-1.078,1.818-2.019,2.38c1.688,0.112,2.781-1.475,4.039-2.621C46.725,25.058,46.729,25.085,46.729,25.114z
		 M37.857,19.822c-0.584-0.136-1.848-0.111-2.431-0.246c-0.915-0.431-1.218-2.161-1.622-3.242c1.303,0.277,3.401,1.562,4.021,2.715
		C38.062,19.232,37.622,19.64,37.857,19.822z M39.927,22.322c0.384,0.289,0.715,0.603,0.5,0.97c-0.219,0.368-0.54,0.814-0.78,1.129
		c-1.48-0.191-3.254-1.689-4.275-2.583C37.709,21.531,39.546,22.033,39.927,22.322z M24.856,3.242
		c6.043,0.001,11.503,2.446,15.466,6.406c3.46,3.463,5.764,8.069,6.29,13.209c-2.311-0.402-4.821-1.384-5.764-2.792
		c-0.246-0.815-0.492-1.628-0.741-2.442c-1.592-0.849-3.183-1.698-4.775-2.548c-3.463-2.355-7.535-6.947-9.118-11.5
		c-0.07,0.01-0.14,0.019-0.208,0.027c-0.56,3.355,3.393,7.556,4.868,9.729c-2.359-0.786-8.65-6.705-10.516-9.625
		C21.81,3.404,23.314,3.242,24.856,3.242z M14.28,8.274c2.383-0.535,5.449,0.343,7.857,1.335c0.07-0.008,0.141-0.017,0.209-0.028
		c-1.326-2.2-3.417-3.726-5.879-4.669c1.096-0.456,2.24-0.821,3.418-1.095c2.203,3.876,5.793,6.436,7.688,10.159
		c-3.676-1.817-8.002-4.385-13.033-4.218c1.837,1.338,4.574,1.262,6.289,2.773c-3.01-0.546-5.666-1.047-9.787-0.413
		c1.659,0.278,3.314,0.552,4.973,0.83c-1.678,0.643-3.358,1.288-5.038,1.928c-0.066,0.009-0.137,0.019-0.206,0.027
		c-0.229-0.674-0.459-1.349-0.686-2.025C10.765,10.273,12.25,8.725,14.28,8.274z M11.986,22.571
		c0.439-0.412,0.881-0.821,1.322-1.229c0.05-0.149,0.101-0.297,0.151-0.444c-0.645-0.623-1.291-1.241-1.936-1.864
		c-0.008-0.068-0.018-0.137-0.027-0.208c1.264,0.425,1.589,1.11,3.31,1.047c0.319-0.252,0.639-0.507,0.96-0.756
		c-0.296-0.668-0.6-1.334-0.896-2c1.61,0.949,2.267,1.23,4.638,1.511c-0.236-0.746-0.476-1.491-0.716-2.234
		c0.072-0.009,0.139-0.018,0.213-0.028c0.515,0.707,1.026,1.416,1.544,2.126c0.572,0.065,1.145,0.13,1.717,0.196
		c0.277-0.036,0.556-0.072,0.833-0.109c-0.209-0.536-0.42-1.073-0.633-1.609c0.129-0.088,0.259-0.175,0.389-0.262
		c1.296,3.143,3.282,2.118,5.561,3.716c-1.482-0.018-2.965-0.038-4.448-0.054c1.042,0.427,2.084,0.854,3.127,1.284
		c0.167,0.19,0.331,0.378,0.5,0.568c-2.037-0.125-3.492-0.953-5.083-1.662c1.09,1.72,4.547,3.397,6.627,3.787
		c0.01,0.069,0.02,0.14,0.029,0.208c-0.812,0.247-1.947,0.748-2.762,0.996c0.526,0.452,2.123,0.273,3.714,0.492
		c1.489,0.202,2.976,0.858,3.821,1.059c0.848,0.203,1.116,0.983,1.496,1.71c-0.356,0.745-1.096,1.214-1.561,1.837
		c-0.125,0.253-0.346,0.314-0.485,0.333c2.45,0.195,4.566-0.479,6.804-2.439c-0.721-0.119-1.494-0.086-2.217-0.206
		c-0.083-0.128-0.759,0.1-0.652-0.689c0.293-0.463,0.861-0.959,1.156-1.421c-1.245,0.386-2.716,0.312-3.638-0.299
		c-0.716-0.286-0.811-0.413-1.201-1.11c-0.114-0.34-0.23-0.678-0.345-1.014c4.703-0.304,7.301,3.219,9.025,6.678
		c0.84,1.69,1.041,3.101,2.024,4.548c-0.485,0.952-1.039,1.864-1.654,2.728c-4.499-4.32-10.47-4.916-19.356-4.404
		c-0.01-0.07-0.02-0.138-0.027-0.206c2.536-0.759,5.656-1.479,8.677-1.559c-0.01-0.069-0.018-0.139-0.027-0.208
		c-1.587-0.47-2.605-1.644-4.14-2.386c-1.525-0.737-3.565-1.043-5.453-1.435c-0.321-0.311-0.645-0.622-0.968-0.933
		c-0.008-0.069-0.018-0.136-0.025-0.205c1.734-0.588,2.052-0.161,3.641,0.367c-1.388-1.871-2.559-1.199-4.277-1.979
		c0.84-2.146,3.046-0.813,4.606-0.39c-0.914-0.955-1.883-1.484-3.213-1.906c-1.468,0.235-1.806,0.549-2.594,1.184
		c-0.277,0.037-0.556,0.072-0.832,0.109c-0.116-0.338-0.23-0.674-0.347-1.012c0.103-0.294,0.207-0.593,0.31-0.887
		c1.169-0.464,1.791-0.537,3.301-0.643c-1.833-1.439-3.33-0.5-5.02,0.446c-0.375,0.855-0.561,1.646-0.062,2.756
		c-0.396,0.195-0.795,0.388-1.196,0.581c-0.933-0.396-1.162-0.462-1.491-1.708c-0.137,0.018-0.275,0.036-0.416,0.054
		c0.01,1.099,0.05,1.532,0.716,2.233c1.02,0.994,2.167-0.113,3.645,0.37c0,0,0.885,1.328,2.251,2.339
		c1.65,1.214,3.835,2.153,3.835,2.153c-4.044-1.053-6.337-2.871-11.405-1.47c-0.511-1.355-0.73-1.815-2.53-1.572
		c-0.009-0.068-0.02-0.137-0.027-0.209c0.467-0.203,0.933-0.403,1.4-0.604c-0.039-0.844-0.077-1.684-0.118-2.525
		c-0.607-0.342-1.217-0.686-1.827-1.03C9.7,22.87,9.673,22.663,9.645,22.453C10.426,22.494,11.208,22.531,11.986,22.571z
		 M4.022,18.446c0.781-1.092,1.56-1.827,2.548-1.725c0.138-0.018,0.277-0.037,0.414-0.054c0.073,0.554,0.146,1.107,0.218,1.662
		c-1.368,1.083-3.015,3.032-4.181,5.542C3.127,21.989,3.472,20.171,4.022,18.446z M3.131,27.623
		c0.448-1.244,1.044-2.388,1.896-3.297c0.65,1.621-0.135,4.608-0.251,6.167c-0.225,2.963,1.854,6.599,3.011,8.291
		C5.275,35.651,3.611,31.82,3.131,27.623z M8.456,39.576c-0.704-1.707-2.144-4.817-1.509-7.04c-0.02-0.14-0.039-0.278-0.056-0.417
		c0.069-0.009,0.137-0.019,0.207-0.028c1.417,2.211,2.689,4.792,4.107,7.002c2.119,2.504,5.252,5.129,8.559,5.725
		c-2.017-2.068-7.258-5.752-7.022-8.389c5.358,1.967,11.454,2.652,14.401,6.185c0.968,1.161,2.022,2.355,2.848,3.759
		c-1.646,0.395-3.364,0.611-5.134,0.611c-6.045-0.002-11.503-2.444-15.467-6.406C9.066,40.256,8.757,39.919,8.456,39.576z
		 M30.621,46.211c-0.831-3.028-2.619-5.715-4.46-7.591c2.239-0.049,3.861,0.794,5.008,2.164c0.992,1.192,2.15,2.1,3.002,4.121
		C33.036,45.439,31.85,45.877,30.621,46.211z M34.608,44.692c-0.205-2.436-1.994-4.722-2.94-5.871
		c-0.008-0.069,4.204,0.114,4.581,4.965C35.717,44.111,35.169,44.411,34.608,44.692z M36.267,43.774
		c0.51-1.577,0.128-3.436-0.511-4.433c0.071-0.008,0.138-0.018,0.207-0.026c1.151,0.588,2.121,1.534,2.747,2.723
		C37.938,42.669,37.12,43.25,36.267,43.774z"/>
</g>
</svg>
