<?xml version="1.0" encoding="utf-8"?>
<!-- Generator: Adobe Illustrator 16.0.0, SVG Export Plug-In . SVG Version: 6.00 Build 0)  -->
<!DOCTYPE svg PUBLIC "-//W3C//DTD SVG 1.1//EN" "http://www.w3.org/Graphics/SVG/1.1/DTD/svg11.dtd">
<svg version="1.1" id="Layer_1" xmlns="http://www.w3.org/2000/svg" xmlns:xlink="http://www.w3.org/1999/xlink" x="0px" y="0px"
	 width="107px" height="214px" viewBox="0 0 107 214">
<g>
	<g>
		<path fill="#3858B5" d="M0.754,133.02c4.048-0.596,7.122-2.056,9.219-4.375c2.097-2.319,6.273-8.759,12.527-19.316l23.348-39.396
			L29.279,36.82C22.066,22.394,16.996,13.417,14.067,9.892C11.138,6.367,7.236,4.471,2.363,4.201V0.375h45.5v3.827
			c-4.382,0.202-7.235,0.604-8.562,1.206c-2.006,0.87-3.009,2.777-3.009,5.722c0,1.876,0.489,4.119,1.467,6.728
			c0.49,1.339,1.174,2.878,2.055,4.619L55.413,53.31l16.973-28.159c2.491-4.095,4.177-7.385,5.057-9.87
			c0.538-1.477,0.806-2.82,0.806-4.029c0-3.022-1.074-5.036-3.225-6.042c-1.32-0.605-3.726-0.94-7.217-1.008V0.375h35.822v3.827
			c-4.035,0.136-7.163,1.01-9.377,2.621c-3.495,2.622-7.828,8.269-12.997,16.937L59.399,61.153l28.647,56.586
			c3.059,6.099,5.608,9.97,7.648,11.61c2.037,1.644,5.023,2.865,8.958,3.67v3.827H60.196v-3.827c4.273-0.135,7.25-0.642,8.934-1.522
			c1.682-0.881,2.524-2.572,2.524-5.078c0-2.165-1.123-5.753-3.365-10.762c-2.245-5.01-8.442-17.668-18.591-37.976l-17.745,30.393
			c-2.588,4.476-4.395,7.747-5.419,9.819c-1.611,3.273-2.417,5.71-2.417,7.312c0,2.939,1.27,5.009,3.809,6.21
			c1.514,0.736,4.086,1.271,7.72,1.604v3.827H0.754V133.02z"/>
	</g>
	<g>
		<path d="M7.837,166.297l-1.667,3.139v10.542H0.776v-34.325H6.17v14.957l7.061-14.957h5.394l-7.502,15.3l7.502,19.025h-5.541
			L7.837,166.297z"/>
		<path d="M26.468,160.118h7.404v4.904h-7.404v10.052h9.316v4.903h-14.71v-34.325h14.71v4.903h-9.316V160.118z"/>
		<path d="M46.179,166.297l-1.667,3.139v10.542h-5.394v-34.325h5.394v14.957l7.061-14.957h5.394l-7.502,15.3l7.502,19.025h-5.541
			L46.179,166.297z"/>
		<path d="M66.478,166.297l-1.667,3.139v10.542h-5.394v-34.325h5.394v14.957l7.061-14.957h5.394l-7.502,15.3l7.502,19.025h-5.541
			L66.478,166.297z"/>
		<path d="M97.171,179.978h-5.443l-0.931-6.228h-6.62l-0.933,6.228h-4.952l5.492-34.325h7.896L97.171,179.978z M84.864,169.093
			h5.198l-2.6-17.358L84.864,169.093z"/>
		<path d="M99.67,145.652h5.394v34.325H99.67V145.652z"/>
		<path d="M0,192.973c0-4.283,2.257-6.731,6.387-6.731c4.131,0,6.387,2.448,6.387,6.731v13.922c0,4.283-2.256,6.73-6.387,6.73
			c-4.13,0-6.387-2.447-6.387-6.73V192.973z M4.207,207.161c0,1.913,0.842,2.64,2.18,2.64c1.339,0,2.18-0.727,2.18-2.64v-14.457
			c0-1.911-0.841-2.639-2.18-2.639c-1.338,0-2.18,0.728-2.18,2.639V207.161z"/>
		<path d="M19.696,198.441h5.431v3.824h-5.431v11.054h-4.207v-26.772h11.13v3.825h-6.923V198.441z"/>
		<path d="M33.35,186.547h13.004v3.825h-4.398v22.947h-4.207v-22.947H33.35V186.547z"/>
		<path d="M47.844,192.973c0-4.283,2.257-6.731,6.387-6.731c4.131,0,6.387,2.448,6.387,6.731v13.922c0,4.283-2.256,6.73-6.387,6.73
			c-4.13,0-6.387-2.447-6.387-6.73V192.973z M52.051,207.161c0,1.913,0.842,2.64,2.18,2.64c1.339,0,2.18-0.727,2.18-2.64v-14.457
			c0-1.911-0.841-2.639-2.18-2.639c-1.338,0-2.18,0.728-2.18,2.639V207.161z"/>
		<path d="M68.839,202.648l-1.3,2.448v8.223h-4.207v-26.772h4.207v11.665l5.509-11.665h4.205l-5.851,11.934l5.851,14.839h-4.32
			L68.839,202.648z"/>
		<path d="M83.105,204.446l-5.316-17.899h4.399l3.212,12.2l3.212-12.2h4.017l-5.317,17.899v8.873h-4.206V204.446z"/>
		<path d="M93.392,192.973c0-4.283,2.257-6.731,6.388-6.731c4.132,0,6.388,2.448,6.388,6.731v13.922c0,4.283-2.256,6.73-6.388,6.73
			c-4.131,0-6.388-2.447-6.388-6.73V192.973z M97.6,207.161c0,1.913,0.841,2.64,2.18,2.64s2.18-0.727,2.18-2.64v-14.457
			c0-1.911-0.841-2.639-2.18-2.639s-2.18,0.728-2.18,2.639V207.161z"/>
	</g>
</g>
</svg>
